<?xml version="1.0" standalone="no"?>
<!DOCTYPE svg PUBLIC "-//W3C//DTD SVG 20010904//EN"
 "http://www.w3.org/TR/2001/REC-SVG-20010904/DTD/svg10.dtd">
<svg version="1.0" xmlns="http://www.w3.org/2000/svg"
 width="104.000000pt" height="104.000000pt" viewBox="0 0 104.000000 104.000000"
 preserveAspectRatio="xMidYMid meet">

<g transform="translate(0.000000,104.000000) scale(0.100000,-0.100000)"
fill="#000000" stroke="none">
<path d="M753 558 c-70 -15 -112 -80 -99 -153 10 -50 41 -81 126 -123 78 -38
97 -65 70 -98 -21 -24 -90 -18 -121 12 l-27 26 -41 -22 -42 -21 22 -31 c29
-40 92 -68 157 -68 106 0 162 46 162 136 0 69 -29 104 -129 153 -59 29 -77 42
-79 61 -7 46 52 66 89 29 l20 -20 35 21 c38 24 40 29 22 51 -37 44 -96 61
-165 47z"/>
<path d="M470 377 c0 -129 -4 -187 -12 -195 -19 -19 -59 -14 -84 9 l-23 21
-35 -22 c-20 -12 -36 -25 -36 -29 0 -14 54 -63 78 -72 34 -13 113 -11 142 4
13 7 35 28 47 46 22 32 23 43 23 227 l0 194 -50 0 -50 0 0 -183z"/>
</g>
</svg>
