<svg xmlns="http://www.w3.org/2000/svg" width="105.368" height="105.368" viewBox="0 0 105.368 105.368">
  <g id="Group_1666" data-name="Group 1666" transform="translate(0)">
    <rect id="Rectangle_7" data-name="Rectangle 7" width="105.368" height="105.368" rx="5" transform="translate(0)" fill="#8cc84b"/>
    <g id="nodejs-icon" transform="translate(23.181 20.02)">
      <path id="Path_61" data-name="Path 61" d="M27.444,1.278a5.453,5.453,0,0,1,5.323,0Q44.924,8.147,57.081,15.012a5.005,5.005,0,0,1,2.528,4.311V46.874a5.06,5.06,0,0,1-2.717,4.4Q44.776,58.11,32.665,64.946a5.3,5.3,0,0,1-5.382-.15q-3.633-2.106-7.269-4.2a4.28,4.28,0,0,1-1.4-1.01c.309-.416.861-.468,1.31-.65A16.967,16.967,0,0,0,22.789,57.6a.669.669,0,0,1,.747.045c2.071,1.187,4.123,2.409,6.2,3.585.443.256.892-.084,1.271-.3Q42.9,54.21,54.8,47.506a.787.787,0,0,0,.432-.775q.008-13.633,0-27.267a.852.852,0,0,0-.508-.85Q42.649,11.814,30.58,5.006a.839.839,0,0,0-.948,0Q17.56,11.808,5.492,18.618a.842.842,0,0,0-.51.846q0,13.633,0,27.269a.771.771,0,0,0,.438.765q3.222,1.827,6.447,3.641a4.982,4.982,0,0,0,4.031.54,3.058,3.058,0,0,0,1.98-2.873c.011-9.036-.006-18.072.008-27.107A.68.68,0,0,1,18.627,21c1.032-.007,2.065-.014,3.1,0a.715.715,0,0,1,.674.826c0,9.093.011,18.186-.007,27.278,0,2.423-.993,5.06-3.234,6.246a9.961,9.961,0,0,1-8.9-.245c-2.362-1.179-4.615-2.57-6.935-3.833A5.048,5.048,0,0,1,.6,46.874V19.323a5.014,5.014,0,0,1,2.615-4.365Q15.332,8.121,27.444,1.278Z" transform="translate(-0.603 -0.584)" fill="#fff"/>
      <path id="Path_62" data-name="Path 62" d="M114.54,85.692c3.522-.227,7.293-.134,10.463,1.6a7.912,7.912,0,0,1,3.858,6.847.741.741,0,0,1-.8.545c-1.022,0-2.044.014-3.066-.007a.79.79,0,0,1-.74-.766,4.668,4.668,0,0,0-2.233-3.226c-1.885-.944-4.07-.9-6.126-.877a8.315,8.315,0,0,0-4.385,1.092,2.779,2.779,0,0,0-.924,3.1c.328.78,1.229,1.032,1.966,1.264,4.245,1.11,8.743,1,12.907,2.461a6.077,6.077,0,0,1,4,3.559,7.6,7.6,0,0,1-1.288,7.253,10.163,10.163,0,0,1-5.456,2.94,26.214,26.214,0,0,1-8.236.35,12.978,12.978,0,0,1-7.244-2.725,7.6,7.6,0,0,1-2.448-6,.687.687,0,0,1,.752-.606c1.029-.008,2.058-.011,3.088,0a.721.721,0,0,1,.737.713A4.678,4.678,0,0,0,111.1,106.5c2.092,1.349,4.716,1.257,7.111,1.295,1.984-.088,4.212-.115,5.831-1.426a3.221,3.221,0,0,0,.877-3.076c-.25-.909-1.2-1.333-2.018-1.61-4.19-1.326-8.739-.845-12.889-2.344a6.273,6.273,0,0,1-3.961-3.452,7.071,7.071,0,0,1,1.412-7.356c1.854-1.867,4.531-2.585,7.075-2.843Z" transform="translate(-80.653 -65.913)" fill="#fff"/>
    </g>
  </g>
</svg>
