<svg xmlns="http://www.w3.org/2000/svg" width="104.123" height="104.123" viewBox="0 0 104.123 104.123">
  <g id="Group_3510" data-name="Group 3510" transform="translate(-6137 -1624)">
    <rect id="Rectangle_6" data-name="Rectangle 6" width="104.123" height="104.123" rx="5" transform="translate(6137 1624)" fill="#2ac7e3"/>
    <path id="Union_41" data-name="Union 41" d="M38.771,59.117c-.65-.585-1.332-1.17-1.981-1.819-.519.487-1.006.942-1.525,1.4-6.43,5.618-13.054,7.956-16.982,5.683-3.8-2.175-5-8.6-3.475-16.69q.243-1.316.585-2.63c-.682-.195-1.332-.39-1.981-.617C5.326,41.648,0,37.1,0,32.555c0-4.383,4.968-8.637,12.729-11.364.877-.292,1.786-.585,2.728-.844-.228-.844-.39-1.656-.552-2.436C13.281,9.7,14.417,3.136,18.249.929c3.994-2.338,10.618.162,17.275,6.04.39.357.78.747,1.2,1.136.617-.584,1.2-1.169,1.819-1.688,6.3-5.488,12.567-7.794,16.4-5.585,3.994,2.272,5.164,9.287,3.377,17.956-.1.553-.228,1.072-.357,1.624.812.228,1.623.487,2.37.747,7.923,2.728,13.054,6.981,12.989,11.463,0,4.579-5.488,9.092-13.9,11.884-.454.13-.909.292-1.364.422.195.649.324,1.3.455,1.948,1.688,8.411.39,15.295-3.54,17.568a6.709,6.709,0,0,1-3.421.854C47.948,65.3,43.377,63.075,38.771,59.117ZM45.136,47.2A75.873,75.873,0,0,1,39,54.993c.617.618,1.233,1.17,1.851,1.689,5.358,4.611,10.293,6.332,12.6,5,1.072-.617,1.981-2.175,2.4-4.546a26.338,26.338,0,0,0-.39-9.677c-.1-.585-.228-1.169-.39-1.786A78.906,78.906,0,0,1,45.136,47.2ZM17.924,48.239c-1.331,6.916-.357,12.079,1.948,13.411,1.072.617,2.858.617,5.131-.195a26.346,26.346,0,0,0,8.216-5.131c.487-.39.942-.844,1.429-1.3a79.2,79.2,0,0,1-6.3-7.793,77.189,77.189,0,0,1-9.9-1.429C18.249,46.648,18.087,47.46,17.924,48.239Zm18.9,4.546c1.429-1.591,2.857-3.345,4.287-5.293-1.429.065-2.923.1-4.416.1q-2.193,0-4.286-.1A68.006,68.006,0,0,0,36.823,52.785ZM30,21.093c-1.233,1.785-2.435,3.669-3.571,5.65-1.137,1.948-2.176,3.929-3.118,5.909.975,1.948,2.014,3.929,3.15,5.943,1.137,1.948,2.338,3.864,3.572,5.682,2.143.13,4.384.195,6.657.195,2.305,0,4.546-.065,6.721-.227,1.169-1.786,2.371-3.7,3.508-5.683s2.208-3.994,3.15-5.942c-.942-1.916-2.014-3.9-3.15-5.878s-2.338-3.865-3.54-5.65c-2.176-.163-4.417-.261-6.689-.261S32.179,20.93,30,21.093ZM19.289,42.816a64.24,64.24,0,0,0,6.754,1.072c-.78-1.234-1.558-2.468-2.305-3.767-.714-1.266-1.429-2.533-2.078-3.8A66.03,66.03,0,0,0,19.289,42.816Zm30.36-2.728c-.747,1.3-1.494,2.533-2.241,3.734a66.745,66.745,0,0,0,6.852-1.169,64.9,64.9,0,0,0-2.468-6.462Q50.77,38.14,49.649,40.088ZM13.735,24.178c-6.624,2.337-10.618,5.747-10.618,8.41,0,1.234.909,2.793,2.727,4.351a27.389,27.389,0,0,0,8.573,4.546c.585.195,1.2.358,1.818.553a78.855,78.855,0,0,1,3.605-9.385A71.731,71.731,0,0,1,16.268,23.4Q14.954,23.739,13.735,24.178Zm39.843,8.41a74.584,74.584,0,0,1,3.7,9.287c.423-.129.844-.26,1.234-.39,7.241-2.4,11.722-6.072,11.755-8.93,0-2.662-4.157-6.1-10.944-8.442-.681-.227-1.428-.454-2.175-.681A74.794,74.794,0,0,1,53.578,32.588Zm-3.961-7.469c.747,1.3,1.461,2.566,2.11,3.832a58.557,58.557,0,0,0,2.338-6.332,66.8,66.8,0,0,0-6.689-1.169C48.155,22.652,48.9,23.853,49.617,25.119Zm-30.3-2.532c.649,2.078,1.429,4.189,2.338,6.364.649-1.266,1.364-2.533,2.078-3.8s1.461-2.5,2.241-3.7C23.639,21.743,21.432,22.132,19.32,22.587Zm21.27-13.8c-.552.487-1.1,1.006-1.657,1.527a70.788,70.788,0,0,1,6.2,7.728A73.54,73.54,0,0,1,54.942,19.6c.13-.487.228-.975.325-1.462,1.526-7.468.585-13.183-1.883-14.611a3.593,3.593,0,0,0-1.777-.4C48.953,3.122,44.883,5.059,40.59,8.786ZM19.808,3.624C17.5,4.954,16.593,10.28,17.957,17.294c.162.747.325,1.493.519,2.272a79.434,79.434,0,0,1,9.807-1.526,69.494,69.494,0,0,1,6.235-7.728c-.357-.358-.747-.682-1.1-1.007C28.889,5.3,24.55,3.179,21.713,3.179A3.771,3.771,0,0,0,19.808,3.624ZM41.044,17.781a60.852,60.852,0,0,0-4.319-5.227c-1.461,1.59-2.922,3.345-4.351,5.227,1.429-.065,2.857-.1,4.319-.1S39.615,17.716,41.044,17.781ZM30.2,32.718a6.559,6.559,0,1,1,6.56,6.559A6.542,6.542,0,0,1,30.2,32.718Z" transform="translate(6152.618 1643.784)" fill="#fff"/>
  </g>
</svg>
